<svg width="13" height="22" viewBox="0 0 13 22" fill="none" xmlns="http://www.w3.org/2000/svg">
<path fill-rule="evenodd" clip-rule="evenodd" d="M3.0191 12.0839C3.04768 12.0573 3.08163 12.0362 3.119 12.0218C3.15638 12.0074 3.19645 12 3.23692 12C3.27738 12 3.31745 12.0074 3.35483 12.0218C3.39221 12.0362 3.42616 12.0573 3.45474 12.0839L6.92879 15.31L10.4028 12.0839C10.4315 12.0574 10.4654 12.0363 10.5028 12.0219C10.5402 12.0075 10.5802 12.0001 10.6207 12.0001C10.6611 12.0001 10.7012 12.0075 10.7386 12.0219C10.7759 12.0363 10.8099 12.0574 10.8385 12.0839C10.8671 12.1105 10.8898 12.142 10.9053 12.1767C10.9207 12.2114 10.9287 12.2486 10.9287 12.2862C10.9287 12.3237 10.9207 12.3609 10.9053 12.3956C10.8898 12.4303 10.8671 12.4618 10.8385 12.4884L7.14661 15.9161C7.11803 15.9427 7.08408 15.9638 7.04671 15.9782C7.00933 15.9926 6.96926 16 6.92879 16C6.88832 16 6.84825 15.9926 6.81088 15.9782C6.7735 15.9638 6.73955 15.9427 6.71097 15.9161L3.0191 12.4884C2.99045 12.4619 2.96771 12.4303 2.9522 12.3956C2.93669 12.3609 2.92871 12.3237 2.92871 12.2862C2.92871 12.2486 2.93669 12.2114 2.9522 12.1767C2.96771 12.142 2.99045 12.1105 3.0191 12.0839Z" fill="#003154"/>
<path fill-rule="evenodd" clip-rule="evenodd" d="M3.0191 12.0839C3.04768 12.0573 3.08163 12.0362 3.119 12.0218C3.15638 12.0074 3.19645 12 3.23692 12C3.27738 12 3.31745 12.0074 3.35483 12.0218C3.39221 12.0362 3.42616 12.0573 3.45474 12.0839L6.92879 15.31L10.4028 12.0839C10.4315 12.0574 10.4654 12.0363 10.5028 12.0219C10.5402 12.0075 10.5802 12.0001 10.6207 12.0001C10.6611 12.0001 10.7012 12.0075 10.7386 12.0219C10.7759 12.0363 10.8099 12.0574 10.8385 12.0839C10.8671 12.1105 10.8898 12.142 10.9053 12.1767C10.9207 12.2114 10.9287 12.2486 10.9287 12.2862C10.9287 12.3237 10.9207 12.3609 10.9053 12.3956C10.8898 12.4303 10.8671 12.4618 10.8385 12.4884L7.14661 15.9161C7.11803 15.9427 7.08408 15.9638 7.04671 15.9782C7.00933 15.9926 6.96926 16 6.92879 16C6.88832 16 6.84825 15.9926 6.81088 15.9782C6.7735 15.9638 6.73955 15.9427 6.71097 15.9161L3.0191 12.4884C2.99045 12.4619 2.96771 12.4303 2.9522 12.3956C2.93669 12.3609 2.92871 12.3237 2.92871 12.2862C2.92871 12.2486 2.93669 12.2114 2.9522 12.1767C2.96771 12.142 2.99045 12.1105 3.0191 12.0839Z" fill="#003154"/>
<path fill-rule="evenodd" clip-rule="evenodd" d="M3.0191 12.0839C3.04768 12.0573 3.08163 12.0362 3.119 12.0218C3.15638 12.0074 3.19645 12 3.23692 12C3.27738 12 3.31745 12.0074 3.35483 12.0218C3.39221 12.0362 3.42616 12.0573 3.45474 12.0839L6.92879 15.31L10.4028 12.0839C10.4315 12.0574 10.4654 12.0363 10.5028 12.0219C10.5402 12.0075 10.5802 12.0001 10.6207 12.0001C10.6611 12.0001 10.7012 12.0075 10.7386 12.0219C10.7759 12.0363 10.8099 12.0574 10.8385 12.0839C10.8671 12.1105 10.8898 12.142 10.9053 12.1767C10.9207 12.2114 10.9287 12.2486 10.9287 12.2862C10.9287 12.3237 10.9207 12.3609 10.9053 12.3956C10.8898 12.4303 10.8671 12.4618 10.8385 12.4884L7.14661 15.9161C7.11803 15.9427 7.08408 15.9638 7.04671 15.9782C7.00933 15.9926 6.96926 16 6.92879 16C6.88832 16 6.84825 15.9926 6.81088 15.9782C6.7735 15.9638 6.73955 15.9427 6.71097 15.9161L3.0191 12.4884C2.99045 12.4619 2.96771 12.4303 2.9522 12.3956C2.93669 12.3609 2.92871 12.3237 2.92871 12.2862C2.92871 12.2486 2.93669 12.2114 2.9522 12.1767C2.96771 12.142 2.99045 12.1105 3.0191 12.0839Z" stroke="#003154" stroke-width="0.5"/>
<path fill-rule="evenodd" clip-rule="evenodd" d="M3.0191 12.0839C3.04768 12.0573 3.08163 12.0362 3.119 12.0218C3.15638 12.0074 3.19645 12 3.23692 12C3.27738 12 3.31745 12.0074 3.35483 12.0218C3.39221 12.0362 3.42616 12.0573 3.45474 12.0839L6.92879 15.31L10.4028 12.0839C10.4315 12.0574 10.4654 12.0363 10.5028 12.0219C10.5402 12.0075 10.5802 12.0001 10.6207 12.0001C10.6611 12.0001 10.7012 12.0075 10.7386 12.0219C10.7759 12.0363 10.8099 12.0574 10.8385 12.0839C10.8671 12.1105 10.8898 12.142 10.9053 12.1767C10.9207 12.2114 10.9287 12.2486 10.9287 12.2862C10.9287 12.3237 10.9207 12.3609 10.9053 12.3956C10.8898 12.4303 10.8671 12.4618 10.8385 12.4884L7.14661 15.9161C7.11803 15.9427 7.08408 15.9638 7.04671 15.9782C7.00933 15.9926 6.96926 16 6.92879 16C6.88832 16 6.84825 15.9926 6.81088 15.9782C6.7735 15.9638 6.73955 15.9427 6.71097 15.9161L3.0191 12.4884C2.99045 12.4619 2.96771 12.4303 2.9522 12.3956C2.93669 12.3609 2.92871 12.3237 2.92871 12.2862C2.92871 12.2486 2.93669 12.2114 2.9522 12.1767C2.96771 12.142 2.99045 12.1105 3.0191 12.0839Z" stroke="#003154" stroke-width="0.5"/>
</svg>
