<svg width="100" height="32" viewBox="0 0 100 32" fill="none" xmlns="http://www.w3.org/2000/svg">
<g clip-path="url(#clip0_1877_18709)">
<path fill-rule="evenodd" clip-rule="evenodd" d="M39.9999 0.597794C40.9472 0.984607 41.6139 1.72307 41.9999 2.56702C42.3858 3.37581 42.5613 4.2901 42.5613 5.20438C42.5613 6.75163 41.9648 8.26372 40.7367 9.178C40.2104 9.56481 39.6139 9.84613 38.9472 10.022C38.2806 10.1626 37.5086 10.2681 36.8069 10.2681H36.5262H36.0701C35.9999 10.2681 35.9209 10.2593 35.842 10.2505C35.763 10.2417 35.6841 10.2329 35.6139 10.2329H35.5087V13.6791H32.3859V0.351648L32.5262 0.316481C33.0876 0.210986 33.7192 0.140653 34.3858 0.0703231C35.0525 0.0351583 35.8946 0 36.5613 0C36.9122 0 37.2981 0.0351583 37.6841 0.0703231C38.1051 0.105488 38.5262 0.175817 38.9122 0.246147C39.2981 0.351641 39.649 0.457135 39.9999 0.597794ZM36.1753 7.49009C36.5613 7.52525 37.0174 7.52525 37.4034 7.45492C37.8946 7.38459 39.4034 7.13844 39.4034 5.27471C39.4034 3.32508 38.164 3.05227 37.7816 2.9681L37.7816 2.96808L37.7812 2.968C37.7568 2.96264 37.736 2.95805 37.7192 2.95384C37.4385 2.88351 37.1227 2.84835 36.7718 2.84835C36.6214 2.84835 36.471 2.85844 36.3313 2.86782C36.2104 2.87593 36.0976 2.8835 35.9999 2.8835C35.8595 2.8835 35.5437 2.91867 35.5437 2.91867V7.45492C35.5437 7.45492 36.0701 7.49009 36.1753 7.49009ZM0 27.4636V0.140625H24.2807V27.4636L12.1403 31.9296L0 27.4636ZM19.4035 8.58016C19.0877 8.47467 18.7368 8.36918 18.3509 8.26368C16.7368 7.87687 15.193 7.8417 13.9298 8.15818C14.421 8.50983 14.9473 9.07247 15.3684 9.81093C16.4912 9.70544 17.7193 9.88126 18.9473 10.3736C19.06 10.4219 19.1652 10.4703 19.2631 10.5153L19.2631 10.5153C19.3787 10.5684 19.4839 10.6168 19.5789 10.6549L20.3158 9.00215L20.2456 8.96698C20 8.82632 19.7193 8.68566 19.4035 8.58016ZM6.77192 9.81093H6.87719C6.99344 9.81093 7.13378 9.7868 7.29819 9.75853C7.33226 9.75267 7.36736 9.74663 7.4035 9.7406C7.92982 9.67027 8.59648 9.59994 8.63157 9.59994H9.26314H9.57893C10.2105 9.59994 10.807 9.81093 11.0526 9.91642C11.4386 10.0571 11.7895 10.2681 12.0702 10.5494C12.3509 10.7955 12.5614 11.112 12.7017 11.4988C12.8421 11.8505 12.9123 12.2725 12.9123 12.6944C12.9123 13.1868 12.8421 13.6439 12.6667 14.0659C12.4912 14.4527 12.2807 14.8395 11.9649 15.1208L11.8596 15.2263L11.8612 15.2342C11.8998 15.4279 12.0786 16.3263 12.6667 17.0197L12.6667 17.0197L12.6667 17.0197L12.6667 17.0197L12.6667 17.0196L12.6668 17.0196L12.6668 17.0196L12.6668 17.0196L12.6668 17.0196L12.6669 17.0196L12.6669 17.0195L12.6669 17.0195C12.8773 16.8789 13.0878 16.7383 13.2982 16.5626C13.8245 16.1406 14.2105 15.578 14.5263 14.945C14.8421 14.312 14.9824 13.5384 14.9824 12.6944C14.9824 11.956 14.8421 11.2527 14.5965 10.6549C14.3509 10.0571 13.9649 9.52962 13.5088 9.1428C13.0526 8.75599 12.4912 8.43951 11.8245 8.22852C11.2631 8.05269 10.2807 7.8417 9.43858 7.8417C8.10525 7.8417 6.87719 7.9472 6.35087 8.05269H6.17543C5.89473 8.05269 5.15789 8.12303 4.59649 8.26368L4.49122 8.29885V20.8527H6.52631V17.3714C6.87719 17.4768 7.57894 17.6527 8.5263 17.7933C8.15985 16.9587 8.01481 16.2191 7.97105 15.996L7.9649 15.9648C7.50982 15.8888 7.12761 15.7945 6.8314 15.7214L6.83134 15.7214L6.83132 15.7214C6.71647 15.6931 6.61454 15.6679 6.52631 15.6483V9.8461C6.5614 9.8461 6.60526 9.83731 6.64911 9.82852C6.69297 9.81972 6.73683 9.81093 6.77192 9.81093ZM20.3859 19.9032L20.421 19.8681H20.4561V14.3472H16.5614L15.7895 15.9999L18.6316 15.9648V18.7076L18.5614 18.7779C18.538 18.7897 18.5185 18.8014 18.499 18.8131C18.46 18.8365 18.421 18.86 18.3509 18.8834C18.1754 18.9538 17.9298 19.0241 17.6842 19.0944C17.4386 19.1648 17.193 19.1999 16.9123 19.2351C15.2982 19.4461 13.1228 19.1296 11.9298 17.5472C10.8421 16.1406 10.6316 13.89 11.4035 12.3428C11.5088 12.0966 11.6491 11.8856 11.8245 11.6747C11.3684 10.8659 10.5263 10.7252 10.2105 10.6901C9.4035 11.8153 8.91227 13.1867 8.91227 14.523C8.91227 17.3362 10.3158 19.5867 12.6667 20.6065C13.5438 20.9933 14.5965 21.1691 15.6842 21.1691C16.5965 21.1691 17.5438 21.0637 18.4912 20.7823C18.8772 20.6768 19.2631 20.5362 19.5789 20.3955C19.6352 20.3642 19.6903 20.334 19.7441 20.3045C19.9925 20.1685 20.2129 20.0477 20.3859 19.9032ZM39.4036 24.2988L38.2808 26.7955H41.3685V28.7296C41.2282 28.7999 41.0878 28.8703 40.9124 28.9054C40.7277 28.9671 40.5161 29.0017 40.3248 29.033L40.2457 29.0461C40.0352 29.0813 39.7896 29.1164 39.579 29.1164C39.4631 29.1164 39.3473 29.1271 39.2431 29.1366L39.2431 29.1367C39.158 29.1445 39.0807 29.1516 39.0176 29.1516C38.4562 29.1516 37.9299 29.1164 37.4387 29.0109C36.9826 28.9054 36.5615 28.7648 36.2106 28.5186C35.6843 28.2021 35.2633 27.745 34.9475 27.1472C34.6317 26.5494 34.4913 25.8461 34.4913 25.0021C34.4913 24.2988 34.5966 23.6659 34.8071 23.1032C35.0176 22.5758 35.3334 22.1186 35.7194 21.767C35.9299 21.5912 36.1404 21.4153 36.4211 21.2747C36.6668 21.134 36.9475 21.0285 37.2282 20.9582C37.5089 20.8879 37.8247 20.8175 38.1054 20.7824C39.0176 20.6769 39.965 20.7472 40.8773 20.9934C41.5089 21.1692 42.0703 21.3802 42.6317 21.6263L42.8071 21.6966L43.7194 18.9538L43.579 18.8835C42.8422 18.5318 42.0703 18.3208 41.2282 18.145C40.3861 18.0044 39.5439 17.934 38.7369 17.934C38.2808 17.934 37.7896 17.9692 37.2633 18.0395C36.772 18.1098 36.2457 18.2153 35.7545 18.3912C35.2632 18.567 34.772 18.778 34.3159 19.0593C33.8597 19.3406 33.4387 19.6923 33.0527 20.1142C32.8071 20.3956 32.5615 20.712 32.3159 21.0285L32.3159 21.0286C32.1053 21.3802 31.8948 21.7318 31.7194 22.1538C31.544 22.5406 31.4387 22.9977 31.3334 23.4548L31.3334 23.4549C31.2282 23.912 31.1931 24.4043 31.1931 24.9318C31.1931 26.0219 31.3685 27.0065 31.6843 27.8505C32.0001 28.6944 32.4913 29.4329 33.158 30.0659C33.544 30.4175 33.9299 30.734 34.3861 30.9802C34.8422 31.2263 35.2983 31.4373 35.7896 31.5779C36.2808 31.7186 36.772 31.8241 37.2633 31.8944C37.7545 31.9648 38.2808 31.9999 38.7369 31.9999C39.0878 31.9999 39.4387 31.9999 39.8597 31.9648C40.2241 31.9343 40.5885 31.8776 40.9757 31.8172L41.158 31.7889C41.6141 31.6834 42.0703 31.5779 42.5264 31.4021L42.59 31.3776C43.034 31.2067 43.5649 31.0024 44.0001 30.734L44.0703 30.6988V24.4043H39.4036V24.2988ZM94.4912 18.3208C94.8771 18.4263 95.228 18.5318 95.5789 18.6725C96.5613 19.0593 97.1929 19.7626 97.5789 20.6065C97.9648 21.3801 98.1403 22.3296 98.1403 23.2439C98.1403 24.7911 97.5438 26.3032 96.3157 27.2175C95.7894 27.6043 95.1929 27.8856 94.5262 28.0614C93.8596 28.2021 93.0877 28.3076 92.3859 28.3076H92.1052H91.6491C91.5789 28.3076 91.5 28.2988 91.4211 28.29L91.421 28.29C91.342 28.2812 91.2631 28.2724 91.1929 28.2724H91.0877V31.7186H87.9649V18.4263L88.1052 18.3911C88.6666 18.2856 89.2982 18.2153 89.9649 18.145C90.6315 18.1098 91.4736 18.0746 92.1403 18.0746C92.4911 18.0746 92.877 18.1098 93.2628 18.145L93.2631 18.145C93.6841 18.1801 94.1052 18.2505 94.4912 18.3208ZM91.7543 25.5647C92.1403 25.5999 92.5964 25.5999 92.9824 25.5296L92.9984 25.5262L93.0628 25.5129C93.6198 25.3991 94.9824 25.1205 94.9824 23.3494C94.9824 21.3997 93.743 21.1269 93.3606 21.0427C93.3361 21.0373 93.3151 21.0327 93.2982 21.0285C93.0175 20.9582 92.7017 20.923 92.3508 20.923C92.2004 20.923 92.05 20.9331 91.9103 20.9425C91.7894 20.9506 91.6766 20.9582 91.5789 20.9582C91.4385 20.9582 91.1227 20.9933 91.1227 20.9933V25.5296C91.1227 25.5296 91.6491 25.5647 91.7543 25.5647ZM50.1403 13.9604C51.193 13.9604 52.1403 13.7846 52.9824 13.4681C53.8246 13.1164 54.5263 12.6593 55.1228 12.0263C55.7193 11.4285 56.1403 10.6549 56.4561 9.81096C56.7719 8.96701 56.9123 8.01756 56.9123 6.96262C56.9123 5.94284 56.7719 4.99339 56.4561 4.14944C56.1403 3.30548 55.7193 2.56703 55.1228 1.93406C54.5263 1.33626 53.8246 0.843952 52.9824 0.492304C52.1403 0.140657 51.193 0 50.1403 0C49.1228 0 48.2105 0.175819 47.4035 0.457137C46.5965 0.77362 45.8596 1.23076 45.2632 1.82856C44.6667 2.42636 44.2105 3.16483 43.8947 4.04395C43.579 4.92307 43.4035 5.90768 43.4035 6.99778C43.4035 8.08789 43.579 9.0725 43.8947 9.95162C44.2105 10.8307 44.6667 11.5692 45.2632 12.167C45.8596 12.7648 46.5614 13.2219 47.4035 13.5384C48.2105 13.7846 49.1579 13.9604 50.1403 13.9604ZM46.7018 6.92745C46.7018 6.18899 46.7719 5.55603 46.9474 5.02856C47.1228 4.50108 47.3333 4.07911 47.6491 3.72747C47.9649 3.37582 48.3158 3.12966 48.7368 2.989C49.1579 2.81318 49.6491 2.74285 50.1754 2.74285C50.7719 2.74285 51.2982 2.84834 51.7193 3.05933C52.1403 3.27032 52.5263 3.55163 52.807 3.93845C53.0877 4.29009 53.2982 4.74724 53.4386 5.27471C53.5789 5.80218 53.6491 6.36482 53.6491 6.96262C53.6491 7.56042 53.5789 8.12306 53.4386 8.65053C53.2982 9.178 53.0877 9.59998 52.807 9.98679C52.5263 10.3384 52.1754 10.6549 51.7193 10.8659C51.2982 11.0769 50.7719 11.1824 50.1754 11.1824C49.6491 11.1824 49.1579 11.1121 48.7368 10.9362C48.3158 10.7604 47.9649 10.5143 47.6491 10.1978C47.3333 9.84613 47.1228 9.42415 46.9474 8.89668C46.7719 8.29888 46.7018 7.66591 46.7018 6.92745ZM61.9999 10.8659H65.9998L64.7718 13.6791H58.877V0.140625H61.9999V10.8659ZM69.1227 13.6791L70.3157 10.901H75.5087L76.7017 13.6791H80.035L74.1402 0.140625H71.8595L65.9648 13.6791H69.1227ZM72.9122 4.53622L73.3683 5.87248L74.421 8.36917H71.4034L72.456 5.90764L72.9122 4.53622ZM81.5086 0.140625H84.6314V13.6791H81.5086V0.140625ZM90.807 8.40441L92.3158 8.58023L96.1404 13.6791H100L95.7895 8.40441L95.3333 7.94727L95.3914 7.92561L95.4347 7.90953C95.6881 7.8157 95.959 7.71538 96.1754 7.56045C96.5263 7.34946 96.8421 7.06814 97.1228 6.75166C97.4035 6.43517 97.614 6.04837 97.7544 5.59123C97.8947 5.13408 98 4.64178 98 4.07915C98 3.34069 97.8596 2.70771 97.5439 2.18024C97.2281 1.65277 96.8421 1.2308 96.3158 0.914318C96.0351 0.738494 95.7544 0.597831 95.4386 0.492337C95.1228 0.386842 94.7719 0.281352 94.4211 0.211023C94.0702 0.140693 93.7193 0.10552 93.3333 0.0703553C92.9825 0.0351991 92.6318 0.0351991 92.281 0.0351991H92.2807H92.2805C91.9998 0.0351991 91.649 0.0351991 91.2632 0.0703553C90.9071 0.0703553 90.5511 0.100286 90.1674 0.132532L90.0702 0.140689C89.6491 0.175854 89.2632 0.211014 88.8772 0.246179C88.4912 0.281344 88.1404 0.316517 87.8246 0.386847L87.6842 0.422003V13.6791H90.807V8.40441ZM94.0351 6.04836C93.7895 6.18902 93.5088 6.29452 93.1579 6.32969C92.8071 6.40001 92.4562 6.40001 92.1404 6.40001H92.1404H90.807V3.12969H90.9825C91.1228 3.12969 91.2632 3.12969 91.4035 3.09453H91.8947C92.4211 3.09453 92.9123 3.09453 93.3333 3.16486C93.614 3.20002 93.8947 3.30551 94.1053 3.44617C94.3158 3.58683 94.4561 3.72749 94.5965 3.97364C94.7018 4.18463 94.7719 4.43078 94.7719 4.64177C94.7719 5.02858 94.7018 5.30991 94.5965 5.55606C94.4211 5.73188 94.2456 5.9077 94.0351 6.04836ZM54.3469 25.949C54.3127 25.9616 54.2788 25.9742 54.2455 25.9867L54.7016 26.479L58.9121 31.7537H55.0525L51.2279 26.6548L49.7192 26.479V31.7537H46.5964V18.4615L46.7367 18.4263C47.0525 18.356 47.4034 18.3208 47.7893 18.2856L47.7907 18.2855C48.1762 18.2504 48.5618 18.2153 48.9823 18.1801L49.0793 18.172L49.0794 18.172C49.4631 18.1397 49.8192 18.1098 50.1753 18.1098C50.5613 18.0747 50.9121 18.0746 51.1928 18.0746C51.5437 18.0746 51.8946 18.0747 52.2455 18.1098C52.6314 18.145 52.9823 18.1801 53.3332 18.2505C53.6841 18.3208 54.0349 18.4263 54.3507 18.5318C54.6665 18.6373 54.9472 18.7779 55.2279 18.9538C55.7542 19.2703 56.1402 19.6922 56.456 20.2197C56.7718 20.7472 56.9121 21.3801 56.9121 22.1186C56.9121 22.6812 56.8069 23.1735 56.6665 23.6307C56.5262 24.0878 56.3157 24.4746 56.035 24.7911C55.7542 25.1076 55.4385 25.3889 55.0876 25.5999C54.8712 25.7548 54.6002 25.8552 54.3469 25.949ZM53.4385 23.3142C53.5437 23.068 53.6139 22.7867 53.6139 22.3999C53.6139 22.1538 53.5437 21.9428 53.4735 21.7669C53.3332 21.5208 53.1928 21.3801 52.9823 21.2395C52.7718 21.0988 52.4911 20.9933 52.2104 20.9582C51.7893 20.8878 51.2981 20.8878 50.7718 20.8878H50.2806C50.1402 20.923 49.9999 20.923 49.8595 20.923H49.6841V24.1933H51.0174H51.0175C51.3333 24.1933 51.6841 24.1933 52.035 24.123C52.3858 24.0878 52.6665 23.9823 52.9121 23.8417C53.1227 23.701 53.2981 23.5252 53.4385 23.3142ZM70.2455 19.9385C69.649 19.3407 68.9472 18.8484 68.1051 18.4967C67.263 18.1451 66.3156 18.0044 65.263 18.0044C64.2455 18.0044 63.3332 18.1803 62.5262 18.4616C61.7192 18.7781 60.9823 19.2352 60.3858 19.833C59.7893 20.4308 59.3332 21.1692 59.0174 22.0484C58.7016 22.9275 58.5262 23.9121 58.5262 25.0022C58.5262 26.0923 58.7016 27.0769 59.0174 27.9561C59.3332 28.8352 59.7893 29.5736 60.3858 30.1714C60.9823 30.7692 61.6841 31.2264 62.5262 31.5429C63.3332 31.8593 64.2805 32 65.263 32C66.3156 32 67.263 31.8242 68.1051 31.5077C68.9472 31.156 69.649 30.6989 70.2455 30.0659C70.8419 29.433 71.263 28.6945 71.5788 27.8506C71.8946 27.0066 72.0349 26.0572 72.0349 25.0022C72.0349 23.9824 71.8946 23.033 71.5788 22.189C71.263 21.3099 70.8419 20.5363 70.2455 19.9385ZM68.7367 24.967C68.7367 25.5648 68.6665 26.1275 68.5262 26.655C68.3858 27.1824 68.1753 27.6044 67.8946 27.9912C67.6139 28.3429 67.263 28.6593 66.8069 28.8703C66.3858 29.0813 65.8595 29.1868 65.263 29.1868C64.7367 29.1868 64.2455 29.1165 63.8244 28.9407C63.4034 28.7648 63.0525 28.5187 62.7367 28.2022C62.4209 27.8506 62.2104 27.4286 62.0349 26.9011C61.8595 26.3736 61.7893 25.7407 61.7893 25.0022C61.7893 24.2638 61.8595 23.6308 62.0349 23.1033C62.2104 22.5758 62.4209 22.1539 62.7367 21.8022C63.0174 21.4506 63.4034 21.2044 63.8244 21.0638C64.2455 20.8879 64.7367 20.8176 65.263 20.8176C65.8595 20.8176 66.3858 20.9231 66.8069 21.1341C67.2279 21.3451 67.6139 21.6264 67.8946 22.0132C68.1753 22.3649 68.3858 22.822 68.5262 23.3495C68.6665 23.8066 68.7367 24.3692 68.7367 24.967ZM82.1053 27.8153C82.2105 27.4988 82.2807 27.112 82.2807 26.6548V18.2505H85.2632V26.7955C85.2632 27.6746 85.1228 28.4482 84.8421 29.0812C84.5965 29.7493 84.2105 30.2768 83.7193 30.6988C83.2281 31.1208 82.6667 31.4373 82 31.6482C81.3334 31.8241 80.6316 31.9296 79.8948 31.9296C79.0176 31.9296 78.2105 31.8592 77.5088 31.6482C76.772 31.4373 76.1755 31.1208 75.6842 30.734C75.193 30.3471 74.807 29.8197 74.5614 29.2219C74.3158 28.6241 74.1755 27.9208 74.1755 27.1472V18.2505H77.2983V26.6548C77.2983 27.4988 77.5088 28.1669 77.8948 28.5537C78.2807 28.9406 78.9474 29.1515 79.8597 29.1515C80.2456 29.1515 80.5965 29.1164 80.9123 29.0109C81.193 28.9406 81.4386 28.7999 81.6491 28.5889C81.8597 28.3779 82 28.1318 82.1053 27.8153Z" fill="#8F9090"/>
</g>
<defs>
<clipPath id="clip0_1877_18709">
<rect width="100" height="32" fill="white"/>
</clipPath>
</defs>
</svg>
